<?xml version="1.0" ?><!DOCTYPE svg  PUBLIC '-//W3C//DTD SVG 1.1//EN'  'http://www.w3.org/Graphics/SVG/1.1/DTD/svg11.dtd'><svg enable-background="new 0 0 128 128" height="128px" id="Layer_1" version="1.1" viewBox="0 0 128 128" width="128px" xml:space="preserve" xmlns="http://www.w3.org/2000/svg" xmlns:xlink="http://www.w3.org/1999/xlink"><g id="time_x5F_management"><path d="M114,34c0-4.4-3.6-8-8-8H22c-4.4,0-8,3.6-8,8v76c0,4.4,3.6,8,8,8h84c4.4,0,8-3.6,8-8V34z" fill="#EDEDED"/><path d="M114,30c0-4.4-3.6-8-8-8H22c-4.4,0-8,3.6-8,8v76c0,4.4,3.6,8,8,8h76c4.4,0,16-14.6,16-19V30z" fill="#D0D0D0"/><path d="M114,26c0-4.4-3.6-8-8-8H22c-4.4,0-8,3.6-8,8v76c0,4.4,3.6,8,8,8h75l17-17V26z" fill="#EDEDED"/><path d="M102,16H26c-6.617,0-12,5.383-12,12v13h100V28C114,21.383,108.617,16,102,16z" opacity="0.1"/><path d="M102,14H26c-6.617,0-12,5.383-12,12v13h100V26C114,19.383,108.617,14,102,14z" fill="#DD5345"/><circle cx="53.667" cy="25.5" fill="#1D2D39" r="5"/><circle cx="93" cy="25.5" fill="#1D2D39" r="5"/><circle cx="34" cy="25.5" fill="#1D2D39" r="5"/><circle cx="73.333" cy="25.5" fill="#1D2D39" r="5"/><path d="M114,93h-9.355c-4.4,0-7.645,3.245-7.645,7.645V110L114,93z" fill="#989898"/><path d="M34.385,14L31,25c0,1.657,1.343,3,3,3s3-1.343,3-3l3.385-11H34.385z" opacity="0.1"/><path d="M54.385,14L51,25c0,1.657,1.343,3,3,3s3-1.343,3-3l3.385-11H54.385z" opacity="0.1"/><path d="M73.385,14L70,25c0,1.657,1.343,3,3,3s3-1.343,3-3l3.385-11H73.385z" opacity="0.1"/><path d="M93.385,14L90,25c0,1.657,1.343,3,3,3s3-1.343,3-3l3.385-11H93.385z" opacity="0.1"/><path d="M34,28c-1.657,0-3-1.343-3-3V12c0-1.657,1.343-3,3-3s3,1.343,3,3v13C37,26.657,35.657,28,34,28z" fill="#F2BA34"/><path d="M54,28c-1.657,0-3-1.343-3-3V12c0-1.657,1.343-3,3-3s3,1.343,3,3v13C57,26.657,55.657,28,54,28z" fill="#F2BA34"/><path d="M73,28c-1.657,0-3-1.343-3-3V12c0-1.657,1.343-3,3-3s3,1.343,3,3v13C76,26.657,74.657,28,73,28z" fill="#F2BA34"/><path d="M93,28c-1.657,0-3-1.343-3-3V12c0-1.657,1.343-3,3-3s3,1.343,3,3v13C96,26.657,94.657,28,93,28z" fill="#F2BA34"/><path d="M37,25V12c0-1.657-1.343-3-3-3v19C35.657,28,37,26.657,37,25z" opacity="0.1"/><path d="M57,25V12c0-1.657-1.343-3-3-3v19C55.657,28,57,26.657,57,25z" opacity="0.1"/><path d="M76,25V12c0-1.657-1.343-3-3-3v19C74.657,28,76,26.657,76,25z" opacity="0.1"/><path d="M96,25V12c0-1.657-1.343-3-3-3v19C94.657,28,96,26.657,96,25z" opacity="0.1"/><circle cx="31" cy="59" fill="#989898" r="4"/><circle cx="48" cy="59" fill="#989898" r="4"/><circle cx="65" cy="59" fill="#989898" r="4"/><circle cx="99" cy="59" fill="#989898" r="4"/><circle cx="82" cy="59" fill="#989898" r="4"/><circle cx="31" cy="75" fill="#989898" r="4"/><circle cx="65" cy="75" fill="#989898" r="4"/><circle cx="31" cy="91" fill="#989898" r="4"/><circle cx="48" cy="91" fill="#989898" r="4"/><circle cx="48" cy="75" fill="#989898" r="4"/><path d="M114,107.293V81.707c-4.625-8.821-13.868-14.856-24.5-14.856c-15.246,0-27.649,12.403-27.649,27.649   c0,9.912,5.245,18.618,13.103,23.5h29.092C108.246,115.391,111.695,111.689,114,107.293z M70.41,94.5   c0-10.526,8.563-19.09,19.09-19.09s19.09,8.563,19.09,19.09s-8.563,19.09-19.09,19.09S70.41,105.026,70.41,94.5z" opacity="0.1"/><circle cx="89.249" cy="94.5" fill="#EDEDED" r="22.851"/><path d="M89,71.655v45.689c13-0.135,22.6-10.308,22.6-22.845C111.6,81.964,102,71.791,89,71.655z" opacity="0.1"/><path d="M89.5,68.85c-14.166,0-25.65,11.484-25.65,25.65c0,14.166,11.484,25.65,25.65,25.65   s25.65-11.484,25.65-25.65C115.15,80.334,103.666,68.85,89.5,68.85z M89.5,115.59c-11.629,0-21.09-9.461-21.09-21.09   c0-11.629,9.461-21.09,21.09-21.09s21.09,9.461,21.09,21.09C110.59,106.129,101.129,115.59,89.5,115.59z" fill="#253B4B"/><path d="M87.925,96.915c0.528,0.93,1.711,1.255,2.64,0.727c0.115-0.065,0.221-0.141,0.317-0.225l14.834,3.374   c0.614,0.14,1.225-0.245,1.365-0.859c0.066-0.289,0.015-0.577-0.12-0.816c-0.153-0.269-0.413-0.475-0.738-0.549l-14.847-3.377   c-0.027-0.063-0.049-0.128-0.084-0.189c-0.528-0.93-1.711-1.255-2.64-0.727S87.396,95.985,87.925,96.915z" fill="#BA3E24"/><path d="M102.528,86.323c-0.729-1.026-2.153-1.267-3.179-0.537l-8.868,6.305c-0.816-0.122-1.659,0.047-2.363,0.498   l-10.521-8.151c-0.498-0.386-1.214-0.295-1.599,0.203c-0.386,0.498-0.295,1.214,0.203,1.599l10.521,8.151   c-0.44,1.337-0.025,2.865,1.149,3.775c1.491,1.155,3.643,0.882,4.798-0.609c0.447-0.577,0.678-1.253,0.709-1.932l8.612-6.123   c0.513-0.364,0.83-0.903,0.927-1.478C103.015,87.448,102.893,86.835,102.528,86.323z" fill="#1D2D39"/></g></svg>