<svg viewBox="0 0 512 512" xml:space="preserve" xmlns="http://www.w3.org/2000/svg"><path d="M19364.079 3264.078c-2.13 2.145-2.863 5.567-1.787 8.392 1.076 2.825 3.899 4.897 6.917 5.076 48.4 2.74 75.415 20.365 117.148 62.099 40.436 40.436 71.632 110.214 57.276 182.609-.659 3.298 1.056 6.928 4.02 8.515 2.965 1.587 6.937 1 9.316-1.377l221.68-221.68c2.389-2.373 2.99-6.351 1.406-9.324-1.582-2.972-5.219-4.694-8.522-4.035-72.395 14.356-142.194-16.817-182.63-57.253-41.734-41.734-59.359-68.749-62.1-117.148-.179-3.018-2.251-5.84-5.075-6.917-2.825-1.076-6.25-.347-8.392 1.787l-149.257 149.256z" style="text-indent:0;text-align:start;line-height:normal;text-transform:none;block-progression:tb;marker:none;-inkscape-font-specification:Sans" transform="translate(-19360.797 -3111.058)" font-size="medium" font-style="normal" font-variant="normal" font-weight="400" font-stretch="normal" text-decoration="none" letter-spacing="normal" word-spacing="normal" direction="ltr" writing-mode="lr-tb" text-anchor="start" baseline-shift="baseline" color="#000000" fill="#2165cc" fill-opacity="1" fill-rule="nonzero" stroke="none" stroke-width="15.99999905" visibility="visible" display="inline" overflow="visible" enable-background="accumulate" font-family="Sans" class="fill-1968c0"></path><path d="M19694.281 3412a23157.86 23157.86 0 0 1-32.937 32.813l196.781 173.906.656.687c2.837 2.878 8.017 2.89 10.875.031 2.857-2.857 2.854-8.073-.03-10.906l-.687-.688L19694.281 3412z" style="text-indent:0;text-align:start;line-height:normal;text-transform:none;block-progression:tb;marker:none;-inkscape-font-specification:Sans" transform="translate(-19360.797 -3111.058)" font-size="medium" font-style="normal" font-variant="normal" font-weight="400" font-stretch="normal" text-decoration="none" letter-spacing="normal" word-spacing="normal" direction="ltr" writing-mode="lr-tb" text-anchor="start" baseline-shift="baseline" color="#000000" fill="#333333" fill-opacity="1" fill-rule="nonzero" stroke="none" stroke-width="2.82353091" visibility="visible" display="inline" overflow="visible" enable-background="accumulate" font-family="Sans" class="fill-333333"></path></svg>